<?xml version="1.0" encoding="UTF-8"?><svg xmlns="http://www.w3.org/2000/svg" xmlns:xlink="http://www.w3.org/1999/xlink" height="376.3" preserveAspectRatio="xMidYMid meet" version="1.0" viewBox="-11.9 -3.5 527.0 376.3" width="527.0" zoomAndPan="magnify"><g id="change1_1"><path d="M162.2,281.3c-2.2,5.4-10.7,32.7-10.7,32.7l33.1-5.5l2.5-21.8L162.2,281.3z" fill="#ef8aa5"/></g><g id="change2_1"><path d="M148.7,288.4c17.3,6.5,44,2.2,53.4,0c2.9-17.3,35.9-84.5,43.2-82.3c7.3,2.2,37.6,66.1,37.6,66.1 s-72.5,28.1-116.9,35.7c-44.4,7.6-132.1,1.1-132.1,1.1c0,18.4-5.2,43.3-7.5,49.2c65.9,14.6,331.7-0.6,380.6-50.9 c0.3-0.5-72.3-61.1-73.3-62.2c-1.1-1.1-41.1-107.3-83.9-114.3C207.2,123.8,157.4,251.6,148.7,288.4z" fill="#ec5228"/></g><g id="change3_1"><path d="M261.8,151.4c-8.1-0.5-69.3-18.4-58.5-45.5s40.2-17.5,52.6-12c12.4,5.5,67.6,30.4,90.3,27.1 c22.7-3.2,31-12.5,57.7-6.8c26.7,5.7,43.4,9.4,66.5,46s44.7,123.2,15.4,134c-29.2,10.8-50.1-28.2-50.1-28.2 c-4.1,18.4-13.8,40.1-21.4,42.2c-7.6,2.2-82.8-29.9-92.3-56.1c13.8-14.8,24.6-60.9,18.7-71.6C335,169.9,293.5,153.3,261.8,151.4z" fill="#3b8984"/></g><g id="change4_1"><path d="M37.8,353.9c0,0-14.1,4.3-28.1,0.5c0,0-21.6-81.7,0-116.3c14.1,3.2,13,69.3,27.8,76L37.8,353.9z M289.6,166.3 c21.2,17,51.3,14.4,51.3,14.4l16.2-58.5c-7.6-7.6-33.6-16.2-47.6-11.9c0,0-8.7,26-9.7,28.1L289.6,166.3z M328.6,103.2 c-0.4,5.3,1.8,3.4,4.3,0.2c3.2-3.9,5.6-8.5,7.2-13.3c1.8-5.6,2.3-12.3-1.4-16.8c-3.9-4.8-11-5.6-17.2-4.7c-6.2,0.9-12.3,3-18.5,2.3 c-2.4-0.3-5.2-1.2-6-3.6c-0.9-2.6,1.2-5.2,3-7.2c2.6-2.8,5.2-5.5,7.8-8.3c1.7-1.8,3.5-4,2.9-6.3c-0.8-3.2-5.3-3.8-8.4-2.7 c-3.1,1.1-6.3,3.1-9.5,2.4c-4.2-0.9-6.3-6.2-5.2-10.4c1.1-4.2,4.5-7.4,7.9-10.1s7.1-5.3,9.3-9s2.4-9.1-0.8-12 c-1.6-1.4-3.7-2.1-5.8-2.6C277-3.5,253.4,5,240,22.3c-2.3,3-4.4,6.5-4.1,10.2c0.3,3.6,2.9,6.7,6.1,8.4s6.9,2.1,10.5,2 c3.2-0.1,6.4-0.6,9.6-0.1c3.2,0.5,6.4,2.2,7.5,5.2c1.7,4.3-1.4,8.9-4.2,12.6c-2.7,3.7-5.3,8.9-2.6,12.7c1.1,1.6,3,2.5,4.9,3.2 c13.6,5.1,28.6,0.4,43.1-0.8c4.5-0.4,9.2-0.4,13,2C333.4,83.7,329.2,94.4,328.6,103.2z" fill="#f8ca75"/></g><g id="change5_1"><path d="M431.5,281.2c-2.3-5.5-11.9-37.3-1.9-54c9.7-16.2,30.3-16.2,43.3-2.2c-16.2-8.7-29.2-9.1-37.9,5.4 c-6.5,10.8-0.7,33.3,0.8,35.7C435.6,272.7,432.8,278.1,431.5,281.2z M421.1,184.2l4.8-29.2L378,155c0,0-0.7,66.4,0,66.1 c0.7-0.3,40.7,2.6,40.7,2.6L421.1,184.2z" fill="#282421"/></g><g id="change1_2"><path d="M391.6,47.2c12.3-0.7,20.2,13.8,20.6,24.6c3-2.7,8-2.1,10.2,1.4c2.2,3.4,1.4,8.1-0.8,11.5 c-2.2,3.4-5.6,5.8-9,8.1c-2.1,11.6,2.3,24.2,11.1,32.1c-4.4,5.7-9.8,10.8-16.4,13.7s-14.5,3.3-20.9-0.1c-6.3-3.4-10.5-11.1-8.8-18.1 c4.4-1.7,7.8-5.8,8.6-10.4c-15.2-4.9-25.2-22.2-21.7-37.8C367.2,60.3,379,47.9,391.6,47.2z M423.9,166.1l-2.8,18.2 c0,0-8.6,0.6-12.7-1c-4.1-1.6-8.4-3.5-12.7-2.4c-4.2,1.2-7.1,7.2-3.8,10c-2.9-1.1-6.5,0.7-7.5,3.7c-0.9,3,1.1,6.5,4.1,7.2 c-1.9,1-2.9,3.5-2.2,5.5s2.9,3.4,5.1,3.1c-1.2,1.4-2.3,2.8-3.5,4.2c11.8,8,28.2,8.7,40.6,1.6c1,12.5,4.1,24.9,9.2,36.4 c1.8,4,3.8,8,7.3,10.6c5.5,4.2,13.9,3.7,19.2-0.8c5.3-4.4,7.4-12.2,5.4-18.8c-2.2-7.5-8.5-12.8-13.8-18.6 c-7.6-8.4-14.9-19-15.6-30.5C438.9,172.1,423.9,166.1,423.9,166.1z M263.1,106.7c-5.9-4.1-12.8-9.5-19.6-7c-6,2.2-8.3,9.3-9.8,15.6 c-1.3,5.5-2.6,11.5,0.2,16.4c2.9,5,9,7.1,14.8,8.1c13.5,2.3,27.5,1.3,40.7-2.6c-4.4,6.1-3.7,15.4,1.6,20.7s14.5,6.2,20.7,1.9 c3.5-0.7,5.7-5,4.3-8.2c3,0.7,6.3-2,6.2-5s-3.4-5.6-6.3-4.9c3.5-0.4,3.9-5.8,1.6-8.5c-2.3-2.7-6-3.9-8.6-6.3 c-4.3-4.1-0.3-5.7-5.9-7.6c-4.1-1.4-9.8-0.6-14.2-1.5C279.5,115.8,270.8,112.1,263.1,106.7z" fill="#ef8aa5"/></g><g id="change2_2"><path d="M397.5,46.9c-0.7,0-1.4,0.2-1.9,0.6c-0.7,0.5-1,1.3-1.6,1.9c-1.7,1.7-4.2-0.4-5.5-1.6c-1.2-1.3-2.6-3.1-4.5-3.3 c-1.3-0.1-2.4,0.6-2.7,1.9c-0.9,3.1,1.9,4.6,3.6,6.6c-5.7,0.5-10.5-4-15.6-6c-3.9-1.5-9.7-1.6-12,2.6c-0.2,0.4,0.3,0.8,0.6,0.5 c3.9-4,9.6-2.4,13.9,0c4.6,2.5,9.3,5.7,14.7,4.5c0.6-0.1,0.7-0.8,0.5-1.3c-0.6-1.2-1.6-2.1-2.6-3c-0.9-0.8-1.9-1.9-1.6-3.2 c0.5-2.2,3.2,0.6,3.9,1.4c1,1,2,2.1,3.3,2.7c1,0.5,2.2,0.7,3.3,0.4c1.2-0.3,1.8-1.1,2.5-2c1.1-1.5,3-1.1,4.1,0.1 c1.2,1.2,1.5,3.1,1.8,4.7c0.2,0.9,1.6,0.5,1.4-0.4C402.6,50.8,401.3,46.8,397.5,46.9z" fill="#ec5228"/></g><g id="change5_2"><path d="M390.2,91.3c-2.6,0.9-5.3,1.5-7.9,2.2c-0.8,0.2-1.6-0.4-1.6-1.2c0-5.8,0.3-11.7,0.6-17.5c0-0.9,1.3-0.9,1.3,0 c0.3,5.3,0.5,10.6,0.5,15.9c2.1-0.6,4.2-1.2,6.4-1.7C391,88.6,391.6,90.8,390.2,91.3z M415.2,85.5c0.6,0.9,1.9,0.1,1.4-0.8 c-0.8-1.4-1-3-0.4-4.6c0.5-1.4,1.6-2.5,2.9-3.2c0.5-0.3,0.2-1.1-0.4-1C414.7,77,413.1,82.2,415.2,85.5z M366.9,65.7 c15.1-0.8,28.8-10.3,33.9-5c5,5.3,9.1,18.3,9.1,18.3l2.3-7.2c3.3-14.5,6.4-27.5,0-32.3c-6.4-4.9-4.4,4.9-18.4,0 c-14-4.9-13.9-7.7-27-1.4c-13,6.3-19.5-8.9-27.1,0.9C332.2,48.6,346.3,69.7,366.9,65.7z M392.5,97c-0.2,0.1-0.4,0.1-0.6,0.2 c-0.4,0.1-0.9,0.2-1.3,0.3c0,0-0.2,0-0.2,0c-0.1,0-0.2,0-0.2,0c-0.2,0-0.4,0-0.7,0c-0.5,0-0.9,0-1.4,0c-0.8-0.1-1.4,0.7-1.4,1.4 c0,0.8,0.6,1.3,1.4,1.4c4.3,0.5,8.6-1.4,11.2-4.8c0.4-0.6,0.2-1.5-0.4-1.9c-0.5-0.4-1.5-0.5-1.9,0.1c-1.2,1.5-2.3,2.4-4,3.1 C393,96.8,392.6,96.9,392.5,97z M299.9,157.1c1.4,0.9,3,1.6,4.6,2.2c1.6,0.5,3.5,1,5.2,0.8c0.8-0.1,0.7-1.4,0-1.5 c-0.7-0.2-1.5-0.1-2.3-0.3c-0.8-0.1-1.6-0.3-2.4-0.6c-1.5-0.5-3-1.1-4.3-2c-2.7-1.7-5-4.1-6.6-6.8c-0.3-0.6-1.1-0.1-0.8,0.5 C294.6,152.6,296.9,155.2,299.9,157.1z M316.9,151.1c-1.8-0.6-3.8-0.9-5.7-1.4c-1.9-0.5-3.9-1.2-5.7-2.1c-3.1-1.6-5.9-3.8-7.5-6.9 c-0.2-0.4-0.9-0.1-0.8,0.3c1.4,3.4,4.1,6,7.3,7.7c1.8,1,3.8,1.7,5.8,2.3c2.1,0.6,4.3,1.3,6.4,1.5 C317.6,152.6,317.6,151.3,316.9,151.1z M303,135.8c1.2,1.2,2.5,2.3,3.9,3.2c2.8,1.8,6.1,3,9.5,3.4c1.1,0.1,1.1-1.7,0-1.8 c-3-0.3-6-1.4-8.6-3.1c-1.3-0.8-2.4-1.8-3.5-2.8c-1.1-1.1-2-2.4-3.1-3.5c-0.4-0.4-1.2,0-1,0.6C300.7,133.2,301.9,134.6,303,135.8z M414.2,193.6c-1.8,0.3-3.5,0.7-5.3,0.8c-1.8,0.1-3.6,0-5.4-0.2c-1.7-0.3-3.5-0.7-5.1-1.3c-0.8-0.3-1.6-0.6-2.4-0.9 c-0.8-0.4-1.6-0.9-2.4-1.1c-0.6-0.1-1,0.5-0.6,1c1.2,1.2,3.2,2,4.8,2.6c1.8,0.7,3.7,1.1,5.6,1.4c3.6,0.5,7.8,0.6,11.3-0.6 C415.7,194.9,415.2,193.4,414.2,193.6z M389.2,202.3c3.5,2,7.4,3.2,11.4,3.6c3.9,0.4,8.4,0.2,12.1-1.2c1.1-0.4,0.7-2.1-0.5-1.8 c-1.9,0.4-3.6,1-5.5,1.2c-1.9,0.2-3.8,0.3-5.7,0.2c-3.9-0.2-7.7-1.2-11.3-2.7C389.1,201.2,388.6,202,389.2,202.3z M413.6,211.4 c-0.9,0.3-1.7,0.8-2.6,1.2c-0.9,0.4-1.8,0.6-2.7,0.9c-1.8,0.4-3.6,0.7-5.5,0.7c-3.8,0-7.7-0.9-11.1-2.6c-0.5-0.3-0.9,0.5-0.5,0.8 c3.5,2.3,7.4,3.5,11.6,3.5c2,0,4-0.2,6-0.7c1.9-0.5,4.2-1.1,5.7-2.4C415,212.2,414.3,211.2,413.6,211.4z M351,122.7 c1.7-5.9-31.9-13.4-36.2-9.1C309.7,118.7,349.3,128.5,351,122.7z M429,127.6c-2.1,1.7-4,3.6-6,5.3c-2.1,1.8-4.3,3.4-6.6,4.9 c-4.5,2.9-9.4,5.3-14.7,6.4c-9.9,2.1-21.4-0.1-27.3-9c-3-4.4-4.3-9.7-3.1-15c0.1-0.6-0.7-0.9-0.9-0.3c-3,9.6,3.3,20,11.9,24.2 c10.4,5.2,22.9,2.7,32.6-2.9c2.9-1.6,5.6-3.6,8.2-5.6c2.6-2.1,5.4-4.2,7.5-6.7C431.4,128.1,430,126.8,429,127.6z M476.4,246.5 c-1.8-7-6.6-13.4-12.9-16.9c-1.4-0.8-2.6,1.3-1.2,2.1c5.1,3.1,9.3,7.4,11.4,13c2.1,5.5,2,11.5-0.3,16.9c-2.4,5.5-7,9.7-12.7,11.3 c-5.4,1.5-11.5,0.8-16-2.7c-5-3.8-7.7-10.2-7-16.4c0.1-0.6-1-0.8-1.1-0.2c-1.3,5.9,0.9,11.9,5,16.2c4.4,4.5,10.7,6.3,16.8,5.4 C471.9,273.3,479.6,259.2,476.4,246.5z M441.7,180.4c1-2.9,1.6-5.8,2.7-8.6c1.1-2.9,2.5-5.6,4.1-8.2c1.6-2.5,3.4-4.9,5.5-7.1 c1.1-1.1,2.2-2.2,3.3-3.2c1.1-1,2.5-1.9,3.6-2.9c0.8-0.8-0.2-2.1-1.2-1.6c-2.7,1.5-5.1,4-7.1,6.3c-2.2,2.3-4.1,4.9-5.8,7.6 c-1.7,2.7-3.1,5.6-4.2,8.5c-1.1,2.9-2.1,6.1-2.2,9.2C440.3,181,441.5,181.1,441.7,180.4z M424.1,289.8c-27.2-1.9-54-11.8-76.2-27.7 c-6.3-4.5-12.1-9.5-17.7-14.9c-0.8-0.8-2,0.4-1.2,1.2c19.3,19.9,45.2,33.6,72.2,39.8c7.5,1.7,15.2,2.7,23,3.2 C425.1,291.5,425.1,289.9,424.1,289.8z M232.2,100.4c4-3,8.8-3.9,13.7-3c0.4,0.1,0.7-0.4,0.3-0.7c-4-2.4-9.1-1.5-13,0.6 c-4.2,2.2-7.2,6.2-9.2,10.4c-3.9,8.5-4.9,20.2,2.4,27.2c3.2,3.1,8.8,5.7,13.3,4c0.8-0.3,0.8-1.8-0.2-1.7c-1.9,0.2-3.8,0.3-5.7-0.2 c-1.9-0.5-3.6-1.4-5.1-2.7c-3.3-2.7-5.1-6.7-5.6-10.9C222.3,115.3,225.6,105.4,232.2,100.4z M245.3,206.1 c4.6,2.1,10.6,14.1,10.6,14.1l-2.3-32.4C251.5,193.1,245.3,206.1,245.3,206.1z M13.6,331.8c-1.8-6.9-3.2-14-4.1-21.1 c-1.8-14.3-1.9-28.7-0.1-43c1-8.1,2.9-16,4.6-24c0.2-1-1.2-1.4-1.6-0.4c-2.3,7-3.6,14.5-4.6,21.8c-1,7.1-1.5,14.3-1.6,21.5 C6,301.1,7.7,315.8,11.1,330c1.9,7.9,4.1,15.9,7.5,23.3c0.5,1.1,2.3,0.3,1.9-0.8C18.1,345.6,15.5,338.9,13.6,331.8z M25.4,287.8 c0.7-0.7,1.6-1.2,2-2.1c0.4-0.8-0.4-1.8-1.3-1.3c-0.8,0.5-1.3,1.4-1.9,2.1c-0.6,0.7-1.2,1.3-1.8,2c-0.6,0.7-1.2,1.3-1.8,2 c-0.3,0.4-0.7,0.7-0.9,1.1c-0.1,0.2-0.2,0.4-0.3,0.6c-0.1,0.2-0.3,0.4-0.5,0.7c-0.3,0.3,0.2,0.8,0.5,0.5c0.2-0.2,0.4-0.3,0.5-0.5 c0.2-0.1,0.4-0.2,0.5-0.3c0.4-0.2,0.7-0.6,1.1-0.9c0.7-0.6,1.3-1.3,1.9-2C24.1,289.1,24.8,288.4,25.4,287.8z M32.3,301.1 c-0.8,0.5-1.6,1.1-2.3,1.7c-0.7,0.6-1.4,1.2-2,1.9c-1.3,1.3-2.5,2.8-3.5,4.4c-0.3,0.5-0.1,1.1,0.4,1.4c0.5,0.3,1,0.1,1.4-0.4 c1-1.4,2.1-2.7,3.3-3.9c0.6-0.6,1.2-1.2,1.9-1.7c0.7-0.6,1.4-1,2.1-1.6c0.4-0.3,0.4-1,0.1-1.4C33.3,301,32.7,300.8,32.3,301.1z M30,295.3c0.4-0.3,0.4-1,0-1.4c-0.4-0.4-1-0.4-1.4,0c-1.1,1.2-2.3,2.3-3.4,3.4c-1.1,1.1-2.3,2.3-3.3,3.5c-0.2,0.2-0.2,0.5,0,0.8 c0.2,0.2,0.5,0.3,0.8,0.2c1.3-1,2.6-2.1,3.8-3.2C27.6,297.5,28.7,296.4,30,295.3z M370.7,296.5c-1.3,0.1-2.7,0.9-3.8,1.5 c-1.2,0.7-2.2,1.4-3.3,2.3c-2.3,1.8-4.2,4-5.9,6.4c-1.6,2.3-2.9,4.9-3.7,7.6c-0.8,2.6-1.7,5.8-1.3,8.6c0.1,1,1.9,1.6,2.1,0.3 c0.4-2.6,0.4-5.2,1.2-7.7c0.8-2.6,1.9-5.1,3.4-7.3c1.5-2.2,3.2-4.2,5.2-5.9c1-0.9,2.1-1.7,3.2-2.4c1.1-0.7,2.4-1.2,3.3-2.1 C371.6,297.3,371.3,296.5,370.7,296.5z M39.3,313.8c-0.8,6.7-1,13.4-1.7,20.1c-0.7,6.7-1.7,13.4-2.8,20.1c-0.3,1.5,2,2.1,2.3,0.6 c1.2-6.7,2.2-13.4,2.9-20.2c0.7-6.8,1.6-13.7,1.4-20.6C41.3,312.5,39.4,312.6,39.3,313.8z M200.7,281.8c-7.6,0.7-15.2,1-22.8,1 c-3.7,0-7.4-0.2-11.2-0.4c-3.9-0.2-7.8-0.9-11.7-0.8c-0.9,0-1.1,1.3-0.2,1.5c3.6,0.9,7.6,1,11.3,1.3c3.8,0.3,7.6,0.4,11.4,0.5 c7.7,0.1,15.4-0.2,23.1-0.9C202.1,283.8,202.1,281.7,200.7,281.8z M333.8,175.4c2-0.1,3.7-0.9,4.7-2.7c1.1-1.8,1.5-4.1,2-6.2 c2.9-10.3,5.8-20.6,8.8-30.8c0.3-1-1.3-1.5-1.6-0.4c-2.8,9.3-5.6,18.6-8.4,27.9c-0.7,2.2-1.3,4.4-2,6.6c-0.3,0.9-0.6,1.9-1.3,2.5 c-0.8,0.8-2,0.8-3.1,0.8c-2.3,0.1-4.5,0-6.8-0.2c-2.4-0.2-4.8-0.8-7.2-0.8c-1.2,0-1.3,1.6-0.3,2c2.3,0.9,5,1,7.5,1.2 C328.7,175.4,331.3,175.6,333.8,175.4z M405.2,105.4c-4.3,4.3-14.1,6.5-19,4.5c-1.1,3.6-2.2,5.8-4,7.4 C385.4,119.5,402,116.3,405.2,105.4z M317.1,256.3c-2.6-0.2-5.6,0.6-8.1,1.2c-2.7,0.6-5.3,1.5-7.9,2.5c-4.9,2-10,4.8-13.8,8.6 c-0.8,0.8,0.2,2.2,1.2,1.5c2.2-1.5,4.2-3.1,6.5-4.5c2.3-1.4,4.6-2.6,7-3.6c2.4-1,4.9-1.8,7.4-2.5c1.3-0.3,2.6-0.6,3.9-0.8 c1.4-0.2,2.8-0.3,4.1-0.6C318.4,257.9,318.1,256.4,317.1,256.3z" fill="#282421"/></g></svg>